<svg viewBox="0 0 500 171.72" xmlns="http://www.w3.org/2000/svg"><g fill="white"><path d="m240.06 116.83 3.45-.35.23 7c-7.67 1.16-15.41 1.79-23.16 1.9-8.55 0-14.61-2.48-18.17-7.43s-5.34-12.65-5.35-23.1c0-20.82 8.28-31.23 24.83-31.24 8 0 13.98 2.24 17.93 6.71s5.93 11.5 5.94 21.09l-.47 6.77h-39.2c0 6.57 1.19 11.44 3.56 14.61s6.51 4.75 12.42 4.75c5.89 0 11.89-.23 17.99-.71zm-3.21-25.77c0-7.28-1.17-12.43-3.5-15.44s-6.12-4.52-11.35-4.51c-5.27 0-9.23 1.58-11.88 4.75s-4.03 8.23-4.12 15.2z"></path><path d="m258.18 125.44v-78.83h8.91v78.83z"></path><path d="m323.19 82.75v30c0 3 7.4 2.85 7.4 2.85l-.46 7.87c-6.26 0-11.44.52-14.55-2.49-6.72 2.99-14.01 4.51-21.37 4.46-5.46 0-9.62-1.55-12.47-4.64s-4.28-7.53-4.28-13.3 1.47-10.04 4.4-12.77 7.53-4.4 13.78-5l18.64-1.79v-5.1c0-4.04-.87-6.93-2.61-8.67-.95-.9-2.07-1.59-3.3-2.04s-2.53-.65-3.83-.58h-23.4v-7.93h22.86c6.73 0 11.62 1.55 14.67 4.64s4.55 7.92 4.52 14.49zm-36.58 24.23c0 7.28 3 10.92 9 10.92 5.42 0 10.8-.93 15.91-2.73l2.73-1v-19.55l-17.55 1.67c-3.56.31-6.13 1.34-7.72 3.08-1.58 1.75-2.37 4.28-2.37 7.61z"></path><path d="m358 71.58c-8.63 0-12.94 3-12.95 9 0 2.77 1 4.73 3 5.88s6.49 2.35 13.47 3.6c7.05 1.23 12.05 2.96 15 5.17s4.41 6.37 4.39 12.47c0 6.1-1.96 10.57-5.87 13.42s-9.64 4.27-17.17 4.28c-4.91 0-21.29-1.82-21.29-1.82l.47-7.72c9.42.91 16.23 1.58 20.82 1.58s8.1-.73 10.51-2.2 3.63-3.92 3.63-7.36-1-5.78-3.09-7-6.58-2.39-13.54-3.5-11.92-2.74-14.85-4.87-4.39-6.1-4.39-11.88 2-10.06 6.11-12.83 9.17-4.16 15.27-4.16c4.82 0 21.58 1.23 21.58 1.23v7.77c-8.84-.42-16.1-1.06-21.1-1.06z"></path><path d="m423.85 72.53h-18.85v28.39c0 6.81.5 11.29 1.49 13.42 1 2.14 3.34 3.21 7.07 3.21l10.57-.72.59 7.37c-4 .74-8.05 1.18-12.11 1.31-6.18 0-10.46-1.51-12.83-4.52s-3.56-8.75-3.57-17.22v-31.24h-8.43v-7.72h8.43v-18.17h8.79v18.17h18.89z"></path><path d="m436.23 56.94v-10.33h8.91v10.33zm0 68.43v-60.11h8.91v60.11z"></path><path d="m483.73 63.62c4.45.19 8.88.67 13.27 1.44l2.85.35-.36 7.25c-4.65-.59-9.32-.95-14-1.07-6.73 0-11.31 1.6-13.72 4.81s-3.62 9.15-3.62 17.82 1.13 14.7 3.38 18.11 6.95 5.11 14.08 5.11l14-1.07.36 7.36c-5.46.93-10.98 1.49-16.51 1.67-9.26 0-15.65-2.38-19.18-7.13s-5.29-12.75-5.29-24 1.9-19.21 5.7-23.76 10.15-6.84 19.04-6.89z"></path><path d="m172.39 90.06c.02-6.99-2.12-13.82-6.13-19.54-4.01-5.73-9.69-10.08-16.26-12.46.6-3.05.9-6.15.9-9.26.02-10.31-3.23-20.37-9.28-28.71-6.06-8.35-14.61-14.55-24.42-17.73-9.81-3.17-20.38-3.15-30.18.07s-18.32 9.46-24.34 17.83c-4.44-3.44-9.89-5.34-15.51-5.41s-11.11 1.69-15.64 5.02-7.85 8.04-9.46 13.43-1.42 11.15.54 16.42c-6.6 2.4-12.3 6.77-16.35 12.51-4.03 5.74-6.22 12.58-6.26 19.6-.02 7.02 2.14 13.88 6.18 19.62 4.04 5.75 9.75 10.1 16.36 12.47-.58 3.05-.88 6.15-.89 9.26 0 10.28 3.27 20.28 9.32 28.59 6.05 8.3 14.59 14.47 24.37 17.62s20.31 3.11 30.07-.11 18.25-9.44 24.24-17.79c4.43 3.46 9.87 5.38 15.49 5.47s11.12-1.66 15.65-4.98c4.54-3.32 7.86-8.03 9.48-13.41s1.43-11.15-.53-16.42c6.6-2.39 12.31-6.75 16.36-12.49s6.25-12.58 6.3-19.6zm-105.65-64.61c5.55-8.08 13.71-14 23.12-16.76s19.48-2.18 28.51 1.63 16.47 10.62 21.06 19.28 6.05 18.64 4.13 28.25l-38.05 33.35-37.73-17.15-7.36-15.77 6.33-32.84zm-19.11-4.23c4.47 0 8.82 1.46 12.37 4.17l-5.66 29.39-25.85-6.1c-1.12-3.08-1.48-6.39-1.06-9.65.43-3.25 1.63-6.36 3.5-9.05 1.88-2.69 4.37-4.89 7.28-6.42s6.13-2.33 9.42-2.35zm-41 60.69c.04-5.99 1.96-11.82 5.48-16.68 3.52-4.85 8.46-8.49 14.14-10.39l28.37 6.7 6.66 14.23-36.28 32.78c-5.39-2.06-10.04-5.71-13.31-10.47s-5.02-10.4-5.02-16.17zm99.15 64.52c-5.13 7.54-12.54 13.24-21.15 16.26s-17.96 3.2-26.68.51c-8.72-2.68-16.35-8.1-21.76-15.43-5.42-7.34-8.34-16.22-8.33-25.34 0-2.85.27-5.69.83-8.49l37.15-33.52 37.87 17.26 8.39 16zm18.94 4.21c-4.46-.01-8.78-1.49-12.31-4.21l5.62-29.29 25.83 6c1.12 3.08 1.48 6.39 1.06 9.65-.43 3.25-1.63 6.36-3.5 9.05-1.88 2.69-4.37 4.89-7.28 6.42-2.9 1.53-6.13 2.33-9.42 2.35v.04zm21.42-33.58-28.44-6.65-7.55-14.43 37.19-32.62c5.4 2.04 10.05 5.68 13.33 10.43s5.04 10.38 5.05 16.15c-.03 6-1.93 11.83-5.44 16.7-3.51 4.86-8.45 8.51-14.14 10.42z"></path></g></svg>