<svg width="120" viewBox="0 0 139 62" fill="none" xmlns="http://www.w3.org/2000/svg">
  <g clip-path="url(#clip0_34_11736)">
    <mask id="mask0_34_11736" maskUnits="userSpaceOnUse" x="0" y="0" width="139" height="62">
      <path d="M139 0H0V62H139V0Z" fill="white"></path>
    </mask>
    <g mask="url(#mask0_34_11736)">
      <!-- Removed: background fill path that made the SVG non-transparent -->
      <!-- <path d="M139 0H0V62H139V0Z" fill="white"></path> -->

      <path d="M53.4267 26.0745V35.6966H51.5391V26.0745H53.4267ZM52.7975 26.0745H57.6453V27.7354H52.7975V26.0745ZM52.7975 29.783H57.3736V31.4153H52.7975V29.783ZM52.7975 34.0357H57.6453V35.6966H52.7975V34.0357Z" fill="#FFFFFF"></path>
      <path d="M67.1123 26.0745L64.1664 30.728L67.3268 35.6966H64.9244L63.0224 32.2458L61.049 35.6966H58.6465L61.8927 30.728L58.9897 26.0745H61.3922L63.0367 29.0957L64.7242 26.0745H67.1266H67.1123Z" fill="#FFFFFF"></path>
      <path d="M70.4006 26.0745V35.6966H68.4414V26.0745H70.4006ZM69.6283 26.0745H71.5303C72.2882 26.0745 72.9317 26.2033 73.4751 26.4467C74.0043 26.6902 74.419 27.0481 74.705 27.5063C74.991 27.9645 75.134 28.5086 75.134 29.1387C75.134 29.7687 74.991 30.2985 74.705 30.771C74.419 31.2292 74.0186 31.5872 73.4751 31.8306C72.946 32.074 72.2882 32.2029 71.5303 32.2029H69.6283V30.5419H71.5303C72.0451 30.5419 72.4598 30.4273 72.7601 30.1839C73.0604 29.9405 73.2177 29.5969 73.2177 29.1387C73.2177 28.6805 73.0604 28.3225 72.7601 28.0934C72.4598 27.8643 72.0451 27.7498 71.5303 27.7498H69.6283V26.0888V26.0745Z" fill="#FFFFFF"></path>
      <path d="M78.5517 26.0745V35.6966H76.6641V26.0745H78.5517ZM77.9225 26.0745H82.7703V27.7354H77.9225V26.0745ZM77.9225 29.783H82.4986V31.4153H77.9225V29.783ZM77.9225 34.0357H82.7703V35.6966H77.9225V34.0357Z" fill="#FFFFFF"></path>
      <path d="M86.7032 26.0743V35.6965H84.7012V26.0743H86.7032ZM85.9739 35.6965V33.9066H87.9045C88.3192 33.9066 88.7196 33.8494 89.1057 33.7348C89.4775 33.6203 89.8064 33.4341 90.0924 33.1907C90.3784 32.9473 90.5929 32.6323 90.7646 32.2457C90.9219 31.859 91.0077 31.4152 91.0077 30.8711C91.0077 30.3269 90.9219 29.8831 90.7646 29.4965C90.6072 29.1099 90.3784 28.8092 90.0924 28.5514C89.8064 28.308 89.4775 28.1219 89.1057 28.0073C88.7339 27.8928 88.3335 27.8355 87.9045 27.8355H85.9739V26.0457H87.976C88.977 26.0457 89.8636 26.2461 90.6215 26.6327C91.3795 27.0336 91.9658 27.5778 92.3805 28.308C92.7952 29.0239 93.0097 29.8831 93.0097 30.8567C93.0097 31.8304 92.7952 32.6895 92.3805 33.4055C91.9658 34.1214 91.3652 34.6798 90.6215 35.0808C89.8636 35.4817 88.9913 35.6678 87.976 35.6678H85.9739V35.6965Z" fill="#FFFFFF"></path>
      <path d="M96.5268 26.0745V35.6966H94.5391V26.0745H96.5268Z" fill="#FFFFFF"></path>
      <path d="M97.6426 26.0745H104.778V27.85H102.19V35.6966H100.231V27.85H97.6569V26.0745H97.6426Z" fill="#FFFFFF"></path>
      <path d="M107.882 26.0745V35.6966H105.895V26.0745H107.882Z" fill="#FFFFFF"></path>
      <path d="M109.785 28.8809C110.042 28.2652 110.399 27.7354 110.857 27.2915C111.315 26.8476 111.858 26.4897 112.473 26.2606C113.088 26.0171 113.76 25.9026 114.489 25.9026C115.219 25.9026 115.891 26.0171 116.506 26.2606C117.121 26.504 117.65 26.8476 118.122 27.2915C118.579 27.7354 118.937 28.2652 119.194 28.8809C119.452 29.4966 119.566 30.1552 119.566 30.8998C119.566 31.6444 119.437 32.2887 119.194 32.9188C118.937 33.5345 118.594 34.0786 118.136 34.5368C117.678 34.995 117.149 35.3529 116.534 35.5964C115.919 35.8541 115.233 35.9686 114.489 35.9686C113.746 35.9686 113.074 35.8398 112.444 35.5964C111.83 35.3386 111.286 34.995 110.828 34.5368C110.371 34.0786 110.013 33.5345 109.77 32.9188C109.527 32.3031 109.398 31.6301 109.398 30.8998C109.398 30.1696 109.527 29.4966 109.785 28.8809ZM111.858 32.5321C112.116 33.0047 112.473 33.3913 112.916 33.6633C113.36 33.9354 113.889 34.0786 114.475 34.0786C115.061 34.0786 115.591 33.9354 116.034 33.6633C116.477 33.3913 116.835 33.019 117.078 32.5321C117.335 32.0596 117.45 31.5155 117.45 30.8998C117.45 30.2841 117.321 29.74 117.078 29.2675C116.835 28.795 116.477 28.4084 116.034 28.1363C115.591 27.8643 115.061 27.7211 114.461 27.7211C113.86 27.7211 113.345 27.8643 112.902 28.1363C112.459 28.4084 112.101 28.7806 111.844 29.2675C111.586 29.74 111.458 30.2841 111.458 30.8998C111.458 31.5155 111.586 32.0596 111.844 32.5321H111.858Z" fill="#FFFFFF"></path>
      <path d="M129.819 26.0743V36.1833L122.983 29.7399V35.7108H121.096V25.6018L127.931 32.0452V26.0743H129.819Z" fill="#FFFFFF"></path>
      <path d="M133.409 33.4057C133.653 33.6777 133.924 33.8782 134.21 34.0214C134.496 34.1646 134.825 34.2361 135.154 34.2361C135.483 34.2361 135.869 34.1359 136.112 33.9355C136.355 33.735 136.484 33.4629 136.484 33.105C136.484 32.747 136.413 32.5609 136.255 32.3747C136.098 32.1886 135.883 32.0311 135.583 31.8879C135.283 31.7447 134.925 31.5872 134.496 31.4297C134.268 31.3438 134.01 31.2292 133.71 31.086C133.409 30.9428 133.138 30.7567 132.866 30.5419C132.594 30.3128 132.38 30.0408 132.208 29.7114C132.037 29.3821 131.951 28.9955 131.951 28.5373C131.951 28.0791 132.094 27.5064 132.366 27.1198C132.652 26.7188 133.023 26.4181 133.51 26.2034C133.996 25.9886 134.525 25.874 135.126 25.874C135.726 25.874 136.27 25.9743 136.713 26.189C137.156 26.3895 137.528 26.6616 137.828 26.9766C138.129 27.2916 138.357 27.6209 138.515 27.9646L136.97 28.8237C136.842 28.5946 136.684 28.3798 136.513 28.1937C136.341 28.0075 136.127 27.85 135.898 27.7355C135.669 27.6209 135.412 27.5636 135.111 27.5636C134.811 27.5636 134.439 27.6495 134.253 27.8357C134.067 28.0218 133.967 28.2223 133.967 28.4657C133.967 28.7091 134.039 28.9096 134.196 29.0957C134.353 29.2676 134.596 29.4394 134.911 29.6112C135.226 29.7687 135.64 29.9405 136.112 30.098C136.427 30.2126 136.727 30.3415 137.013 30.5133C137.299 30.6851 137.557 30.8713 137.8 31.1147C138.043 31.3581 138.214 31.6301 138.343 31.9452C138.472 32.2602 138.543 32.6325 138.543 33.0334C138.543 33.4343 138.458 33.9211 138.272 34.2791C138.086 34.6514 137.843 34.9521 137.514 35.2098C137.199 35.4676 136.827 35.6537 136.441 35.7826C136.041 35.9114 135.626 35.983 135.183 35.983C134.739 35.983 134.053 35.8685 133.538 35.6394C133.023 35.4103 132.594 35.1096 132.208 34.723C131.836 34.3364 131.536 33.9211 131.336 33.4773L132.737 32.4893C132.938 32.8472 133.166 33.1622 133.409 33.42V33.4057Z" fill="#FFFFFF"></path>
      <path d="M39.7399 49.514L32.8328 26.8331L37.4947 13.7745C38.0667 12.1851 39.0535 12.0276 40.6408 11.9274V11.2973H33.0044V11.9274C34.5345 11.8701 35.7787 12.4142 35.7787 14.1038C35.7787 15.7934 35.7787 14.605 35.4211 15.7361L32.3466 25.2294L28.7286 11.9274H31.9747V11.2973H21.1636V0.773088H24.4098V0.143066H12.4976V0.773088H15.7438V29.4964H8.87957V11.9274H12.1258V11.2973H0.199219V11.9274H3.44541V49.514H0.199219V50.144H12.1115V49.514H8.86527V30.4701H15.7295V60.9976H12.4833V61.6276H24.3955V60.9976H21.1493V50.144H30.1157V49.514C29.5151 49.4996 28.7858 49.3565 28.085 49.199C26.8695 48.9269 26.226 48.4114 25.9257 47.7957C25.6254 47.18 25.7112 47.0941 25.7112 46.7361C25.7398 45.5763 26.5835 43.5431 26.5835 43.5431L29.8011 34.6368L34.2199 49.4997H30.9737V50.1297H42.9575V49.4997H39.7113L39.7399 49.514ZM22.8225 48.6262C22.3935 49.0271 21.8644 49.3135 21.1779 49.4424V11.9417H23.0513L29.3578 32.8756L24.6815 45.1038C24.6815 45.1038 24.324 46.1061 23.9379 46.9796C23.5518 47.853 23.2658 48.2253 22.8368 48.6119L22.8225 48.6262Z" fill="#FFFFFF"></path>
    </g>
  </g>
  <defs>
    <clipPath id="clip0_34_11736">
      <rect width="139" height="62" fill="white"></rect>
    </clipPath>
  </defs>
</svg>