<svg xmlns="http://www.w3.org/2000/svg" width="150" viewBox="0 0 203 38" fill="none">
  <g clip-path="url(#clip0_27596_10231)">
    <path d="M70.8736 25.532L64.2366 6.59277H57.9551V31.3631H62.5536V12.7794L68.9536 31.3631H72.841L79.241 12.7794V31.3631H83.8395V6.59277H77.6054L70.8736 25.532Z" fill="#FFFFFF"/>
    <path d="M90.429 12.7793H85.9727V31.3393H90.429V12.7793Z" fill="#FFFFFF"/>
    <path d="M107.14 14.486C105.789 13.0401 103.798 12.1631 101.854 12.1631C99.9104 12.1631 97.8956 12.9453 96.8052 14.486H96.7104V12.7794H92.5859V31.3631H97.0422V22.9483C97.0422 21.4786 96.9711 19.4638 97.777 18.1838C98.3696 17.1883 99.697 16.5483 100.882 16.5483C102.02 16.5483 103.205 17.1172 103.821 18.089C104.604 19.3216 104.604 21.1705 104.604 22.6164V31.3631H109.06V21.7394C109.06 19.369 109.036 17.046 107.59 15.0312C107.472 14.8179 107.306 14.652 107.14 14.486Z" fill="#FFFFFF"/>
    <path d="M125.629 14.6994C124.231 13.0639 122.05 12.1868 119.893 12.1868C117.357 12.1868 114.726 13.4668 113.066 15.3394C111.407 17.212 110.554 19.6535 110.554 22.1424C110.554 24.6313 111.502 27.0254 113.066 28.8506C114.702 30.7231 117.049 31.9557 119.774 31.9557C122.192 31.9557 124.634 30.8891 125.937 28.8506H126.009V31.3631H130.086V6.59277H125.629V14.6994ZM120.438 27.5943C117.333 27.5943 115.01 25.0105 115.01 21.9291C115.01 19.0846 117.523 16.5246 120.367 16.5246C123.425 16.5246 125.937 18.9424 125.937 22.0239C125.937 25.0817 123.52 27.5943 120.438 27.5943Z" fill="#FFFFFF"/>
    <path d="M145.019 18.2071V20.862H153.694C153.291 25.7212 149.475 29.3242 144.592 29.3242C138.951 29.3242 134.66 24.7968 134.66 18.9183C134.66 13.1345 138.951 8.65455 144.45 8.65455C148.077 8.65455 151.182 10.4086 152.509 13.1108L154.88 11.9257C153.41 8.39381 149.191 6.02344 144.45 6.02344C137.363 6.02344 131.863 11.6412 131.863 18.9183C131.863 26.2664 137.339 31.9553 144.45 31.9553C151.206 31.9553 156.397 26.8353 156.397 19.9375C156.397 19.3923 156.349 18.6812 156.278 18.2071H145.019Z" fill="#FFFFFF"/>
    <path d="M195.105 12.4238C192.545 12.4238 190.104 13.7512 189.108 16.169C188.112 13.6801 186.074 12.4238 183.158 12.4238C181.025 12.4238 178.702 13.3483 177.493 15.7661V12.7794H174.886V31.3631H177.493V20.2223C177.493 16.3112 180.101 14.9127 182.376 14.9127C185.41 14.9127 187.235 16.9038 187.235 20.2223V31.3631H189.843V20.2223C189.843 16.3823 192.379 14.9127 194.726 14.9127C197.76 14.9127 199.585 16.9038 199.585 20.2223V31.3631H202.192V19.7483C202.145 15.1735 199.372 12.4238 195.105 12.4238Z" fill="#FFFFFF"/>
    <path d="M164.693 27.9971L158.53 12.7793H155.686L163.366 31.0311L162.251 33.6149C161.588 35.1556 160.806 35.4637 160.023 35.4637H158.103V37.9052H160.166C162.441 37.9052 163.769 36.5067 164.74 34.1837L173.724 12.7793H170.927L164.693 27.9971Z" fill="#FFFFFF"/>
    <path d="M88.2005 6C86.7072 6 85.4746 7.20889 85.4746 8.72593C85.4746 10.2193 86.6835 11.4519 88.2005 11.4519C89.7176 11.4519 90.9265 10.243 90.9265 8.72593C90.9265 7.20889 89.6939 6 88.2005 6Z" fill="#FFFFFF"/>

    <!-- CHANGED: green gradient -> white-to-transparent gradient -->
    <path d="M12.3733 6.59277C5.54667 6.59277 0 12.1394 0 18.9661C0 25.7928 5.54667 31.3631 12.3733 31.3631H42.3585C49.2089 31.3631 54.7318 25.8165 54.7318 18.9898C54.7318 12.1394 49.1852 6.61648 42.3585 6.61648L12.3733 6.59277Z" fill="url(#paint0_linear_27596_10231)"/>

    <path d="M42.4768 31.3394C49.3105 31.3394 54.8502 25.7997 54.8502 18.9661C54.8502 12.1325 49.3105 6.59277 42.4768 6.59277C35.6432 6.59277 30.1035 12.1325 30.1035 18.9661C30.1035 25.7997 35.6432 31.3394 42.4768 31.3394Z" fill="#FFFFFF"/>

    <!-- CHANGED: green highlight -> subtle white highlight -->
    <path opacity="0.08" d="M12.3733 31.3394C19.2069 31.3394 24.7467 25.7997 24.7467 18.9661C24.7467 12.1325 19.2069 6.59277 12.3733 6.59277C5.53973 6.59277 0 12.1325 0 18.9661C0 25.7997 5.53973 31.3394 12.3733 31.3394Z" fill="#FFFFFF"/>
  </g>

  <defs>
    <!-- NEW: white -> transparent gradient -->
    <linearGradient id="paint0_linear_27596_10231" x1="0" y1="18.9683" x2="54.7505" y2="18.9683" gradientUnits="userSpaceOnUse">
      <stop offset="0" stop-color="#FFFFFF" stop-opacity="1"/>
      <stop offset="0.85" stop-color="#FFFFFF" stop-opacity="0"/>
    </linearGradient>

    <clipPath id="clip0_27596_10231">
      <rect width="202.193" height="32" fill="#FFFFFF" transform="translate(0 6)"/>
    </clipPath>
  </defs>
</svg>