<svg class="BrandLogo__svg" xmlns="http://www.w3.org/2000/svg" viewBox="0 0 243.89 40" fill="white" width="140"><path d="m12.02,9.3l-.42-.24c-.81-.49-1.74-.77-2.69-.8-1.14.01-2.25.36-3.19,1-.74.51-1.41,1.12-1.97,1.81v-2.25H0v22.66h3.76v-7.82c-.1-2.47.07-4.95.5-7.39.28-1.27.92-2.43,1.83-3.35.64-.63,1.48-1,2.38-1.03.45.03.88.14,1.29.34l.36.16,1.91-3.11Z" style="fill-rule:evenodd;"></path><path d="m33.26,20.37c.06-2.78-.81-5.49-2.48-7.71-2.17-2.86-5.59-4.49-9.18-4.39-3.5-.1-6.83,1.5-8.93,4.29-1.72,2.18-2.65,4.88-2.62,7.65,0,3.01,1.09,5.92,3.09,8.18,2.17,2.46,5.34,3.8,8.62,3.64,1.51.02,3.02-.23,4.44-.76,1.31-.51,2.51-1.26,3.54-2.22,1.14-1.09,2.07-2.38,2.76-3.8l.21-.4-3.13-1.66-.22.37c-.61,1.1-1.37,2.1-2.28,2.97-.74.63-1.59,1.12-2.51,1.45-.98.36-2.01.55-3.05.55-2.05.05-4.03-.78-5.42-2.28-1.39-1.47-2.19-3.4-2.26-5.43h19.44v-.47Zm-19-2.87h0c.41-1.4,1.17-2.67,2.21-3.69,1.41-1.28,3.26-1.97,5.16-1.94,1.2,0,2.39.26,3.48.78,1.03.46,1.93,1.15,2.64,2.03.63.85,1.1,1.81,1.38,2.83h-14.88Z"></path><path d="m54.28,8.83v3.13c-.88-1.02-1.93-1.86-3.11-2.5-1.55-.8-3.28-1.21-5.03-1.18-3.1-.04-6.07,1.22-8.21,3.47-2.22,2.2-3.45,5.22-3.41,8.35-.06,3.16,1.16,6.21,3.38,8.46,3.4,3.54,8.7,4.49,13.12,2.36,1.22-.62,2.32-1.44,3.26-2.42v2.99h3.66V8.83h-3.66Zm-.87,15.66c-.7,1.24-1.72,2.26-2.97,2.95-1.25.72-2.66,1.09-4.1,1.09-1.41,0-2.79-.38-4-1.1-1.25-.74-2.28-1.81-2.98-3.09-1.48-2.58-1.48-5.75-.01-8.33,1.39-2.57,4.09-4.16,7.01-4.14,2.17-.04,4.25.83,5.75,2.39h0c1.55,1.61,2.39,3.76,2.33,5.99.02,1.48-.34,2.93-1.04,4.23Z"></path><path d="m80.06.44v11.52c-.88-1.02-1.93-1.86-3.11-2.5-1.55-.8-3.28-1.21-5.03-1.19-3.1-.04-6.08,1.22-8.21,3.47-2.22,2.21-3.45,5.22-3.41,8.35-.06,3.16,1.16,6.21,3.38,8.46,3.41,3.54,8.7,4.49,13.12,2.36,1.22-.62,2.32-1.43,3.26-2.42v2.99h3.65V.44h-3.65Zm-.86,24.05c-.7,1.24-1.72,2.27-2.97,2.95-1.25.72-2.66,1.1-4.1,1.1-1.41,0-2.79-.38-4-1.1-1.25-.74-2.28-1.81-2.98-3.09-1.48-2.58-1.48-5.74,0-8.33,1.39-2.57,4.09-4.16,7.01-4.14,2.17-.04,4.26.83,5.75,2.4h0c1.55,1.59,2.4,3.74,2.34,5.97.02,1.48-.34,2.93-1.04,4.23Z"></path><path d="m86.65,8.83h3.69v22.66h-3.7V8.83Z" style="fill-rule:evenodd;"></path><path d="m109.07,9.58c-1.35-.88-2.94-1.34-4.55-1.31-1.62-.01-3.21.39-4.63,1.17-1.14.64-2.16,1.47-3.02,2.46v-3.06h-3.7v22.66h3.7v-8.43c-.07-1.94.06-3.88.38-5.8.39-1.54,1.26-2.91,2.48-3.92,1.17-1.02,2.67-1.58,4.23-1.57,2.46-.22,4.66,1.53,4.99,3.98.26,1.62.36,3.26.3,4.9v10.83h3.7v-11.66c.12-2.28-.2-4.55-.93-6.71-.6-1.45-1.63-2.68-2.94-3.54" style="fill-rule:evenodd;"></path><path d="m133.69,15.82c.69,1.28,1.04,2.71,1.01,4.16.09,2.14-.71,4.23-2.2,5.77-3.36,2.92-8.35,2.91-11.7-.02-1.5-1.46-2.32-3.49-2.24-5.58,0-1.46.37-2.89,1.09-4.15.71-1.26,1.74-2.29,3-3,1.27-.72,2.71-1.09,4.16-1.08,1.4,0,2.78.36,4,1.06,1.2.67,2.19,1.67,2.86,2.87h.01Zm.88-3.95c-.97-1.04-2.12-1.9-3.39-2.55-1.47-.71-3.09-1.07-4.72-1.06-6.45.04-11.65,5.28-11.63,11.73-.02,2.02.5,4,1.49,5.76,1,1.75,2.46,3.2,4.23,4.18,3.33,1.9,7.37,2.06,10.84.43,1.19-.56,2.27-1.33,3.18-2.26.1,1.67-.17,3.34-.78,4.89-.6,1.07-1.5,1.93-2.6,2.48-1.42.71-2.99,1.06-4.58,1.01-1.6.05-3.18-.28-4.62-.98-1.27-.7-2.31-1.75-3-3.02l-.13-.23h-4l.3.65c.63,1.5,1.53,2.87,2.66,4.04,1.08,1,2.37,1.76,3.77,2.23,1.66.56,3.4.84,5.15.82,2.35.06,4.68-.52,6.72-1.68,1.86-1.1,3.27-2.81,3.99-4.85.65-2.22.93-4.54.82-6.85V8.83h-3.7v3.04h0Z"></path><path d="m161.47,9.3l-.42-.24c-.81-.49-1.74-.77-2.69-.8-1.14,0-2.25.36-3.19,1-.74.51-1.41,1.12-1.97,1.81v-2.25h-3.76v22.66h3.76v-7.82c-.1-2.47.07-4.95.5-7.39.28-1.27.91-2.43,1.83-3.35.64-.63,1.48-1,2.38-1.03.45.03.88.14,1.29.34l.36.16,1.91-3.1h0Z" style="fill-rule:evenodd;"></path><path d="m88.49,0c-1.52,0-2.75,1.24-2.74,2.76s1.24,2.75,2.76,2.74c1.52,0,2.75-1.24,2.74-2.76,0-.73-.29-1.43-.81-1.94-.51-.52-1.21-.81-1.95-.8" style="fill-rule:evenodd;"></path><path d="m179.89,19.82c0,1.46-.36,2.9-1.08,4.17-.67,1.24-1.68,2.27-2.9,2.97-2.5,1.4-5.54,1.4-8.04,0-1.22-.7-2.23-1.73-2.9-2.97-.71-1.27-1.08-2.71-1.08-4.17-.04-2.21.81-4.34,2.36-5.91,1.45-1.57,3.49-2.45,5.63-2.44,2.13-.02,4.18.86,5.62,2.44,1.55,1.57,2.41,3.7,2.37,5.91m-7.98-12.01c-3.3-.07-6.46,1.32-8.64,3.81-4.2,4.69-4.13,11.81.17,16.41,4.57,4.67,12.05,4.75,16.72.18,0,0,0,0,0,0,.06-.06.12-.12.18-.18,4.3-4.61,4.38-11.73.18-16.43-2.17-2.47-5.33-3.86-8.61-3.79"></path><path d="m243.01,12.87c-.54-1.38-1.49-2.56-2.72-3.39-1.25-.82-2.71-1.24-4.2-1.22-1.68,0-3.32.49-4.72,1.4-1.27.83-2.34,1.93-3.13,3.22-.32-.79-.75-1.53-1.3-2.19-.68-.77-1.52-1.37-2.47-1.77-1-.44-2.08-.66-3.17-.66-1.65,0-3.27.47-4.68,1.35-.86.57-1.63,1.26-2.28,2.07v-2.85h-3.7v22.66h3.7v-9.67c-.09-1.99.17-3.98.77-5.88.47-1.19,1.27-2.21,2.32-2.94.98-.7,2.14-1.08,3.34-1.08.93-.02,1.85.24,2.62.77.72.49,1.26,1.2,1.53,2.02.39,1.7.55,3.45.46,5.19v11.59h3.69v-8.97c-.11-2.19.14-4.39.74-6.5.45-1.2,1.24-2.24,2.28-2.99.99-.73,2.19-1.12,3.42-1.11.92-.02,1.82.23,2.6.72.7.45,1.23,1.11,1.52,1.89.39,1.51.55,3.08.46,4.64v12.32h3.76v-12.33c.1-2.13-.19-4.26-.87-6.29" style="fill-rule:evenodd;"></path><path d="m204.74,19.82c0,1.46-.36,2.9-1.08,4.17-.68,1.24-1.68,2.27-2.9,2.97-2.5,1.4-5.54,1.4-8.04,0-1.22-.7-2.23-1.73-2.9-2.97-.71-1.27-1.08-2.71-1.08-4.17-.04-2.21.81-4.34,2.36-5.91,1.45-1.57,3.49-2.45,5.63-2.44,2.13-.02,4.18.86,5.62,2.44,1.55,1.57,2.41,3.7,2.37,5.91m-7.98-12.01c-3.3-.07-6.46,1.32-8.64,3.81-4.2,4.69-4.13,11.81.17,16.41,4.57,4.67,12.05,4.75,16.72.18.06-.06.12-.12.18-.18,4.3-4.61,4.38-11.74.17-16.43-2.17-2.47-5.33-3.86-8.62-3.79"></path></svg>