<svg version="1.2" xmlns="http://www.w3.org/2000/svg" viewBox="0 0 1593 426" width="100">
	<title>tesco-svg</title>
	<style>
		.s0 { fill: #ffffff } 
	</style>
	<path id="Layer" class="s0" d="m122.5 353.6h194.8c1.5 0 1.5 1.5 0 1.5-23.6 9.5-55 39.3-55 39.3-22 18.9-39.3 31.5-75.4 31.5h-185.3c-1.6 0-1.6-1.6 0-1.6 20.4-11 50.2-40.9 50.2-40.9 12.6-12.5 37.7-29.8 70.7-29.8z"/>
	<path id="Layer" class="s0" d="m1396.3 353.6h194.7c1.6 0 1.6 1.5 0 1.5-22 9.5-53.4 39.3-53.4 39.3-22 18.9-39.3 31.5-75.4 31.5h-186.9c-1.6 0-1.6-1.6 0-1.6 20.4-11 50.3-40.9 50.3-40.9 14.1-12.5 39.2-29.8 70.7-29.8zm-955 0h194.8c1.6 0 1.6 1.5 0 1.5-22 9.5-53.4 39.3-53.4 39.3-22 18.9-39.3 31.5-75.4 31.5h-185.3c-1.6 0-1.6-1.6 0-1.6 20.4-11 50.2-40.9 50.2-40.9 11-12.5 36.2-29.8 69.1-29.8zm317.3 0h194.7c1.6 0 1.6 1.5 0 1.5-21.9 9.5-53.4 39.3-53.4 39.3-21.9 18.9-39.2 31.5-75.3 31.5h-185.4c-1.5 0-1.5-1.6 0-1.6 20.4-11 50.3-40.9 50.3-40.9 12.6-12.5 37.7-29.8 69.1-29.8zm318.8 0h194.8c1.5 0 1.5 1.5 0 1.5-22 9.5-53.4 39.3-53.4 39.3-22 18.9-39.3 31.5-75.4 31.5h-185.3c-1.6 0-1.6-1.6 0-1.6 20.4-11 50.2-40.9 50.2-40.9 12.6-12.5 37.7-29.8 69.1-29.8z"/>
	<path id="Layer" class="s0" d="m212 48.7h-3.1v180.7c0 25.2 3.1 33 14.1 47.2h-103.6c12.5-14.2 14.1-20.5 14.1-47.2v-179.1c-51.8 0-98.9 7.8-122.5 25.1v-66h323.5v66c-23.5-18.8-76.9-26.7-122.5-26.7z"/>
	<path id="Layer" fill-rule="evenodd" class="s0" d="m1214.1 9.4v66c-22-22-50.3-34.5-86.4-34.5-64.4 0-111.5 42.4-111.5 100.5 0 59.7 43.9 100.6 109.9 100.6 34.6 0 66-11 92.7-39.3v69.2c-37.7 9.4-69.1 14.1-105.3 14.1-111.5 0-185.3-55-185.3-136.7 0-89.6 80.1-147.7 202.6-147.7 29.9 0 59.7 1.5 83.3 7.8zm-667.5 160.3c-18.9-6.3-50.3-7.8-69.1-7.8h-26.7v73.8h36.1c26.7 1.6 91.1 1.6 125.6-23.6v64.5h-249.7c11-12.6 12.6-20.5 12.6-47.2v-172.8c0-25.2-1.6-33-12.6-47.2h234v67.6c-20.4-18.9-76.9-25.1-109.9-25.1h-36.1v70.7h26.7c17.2 0 50.2-1.6 69.1-7.9zm347.1-150.8h3.1v62.8c-28.3-26.7-80.1-40.8-128.8-40.8-28.3 0-61.2 9.4-61.2 33 0 59.7 204.1 4.7 204.1 127.2 0 67.6-65.9 86.5-136.6 86.5-51.8 0-97.4-6.3-131.9-17.3v-58.2c45.5 26.8 83.2 34.6 135 34.6 28.3 0 64.4-9.4 64.4-33 0-70.7-204.1-9.4-204.1-125.7 0-67.6 65.9-88 133.5-88 36.1 0 86.3 7.9 122.5 18.9zm508.8 268.7c-98.9 0-166.4-56.6-166.4-139.9 0-86.4 73.8-146.1 180.6-147.7 98.9 0 164.9 56.6 164.9 141.4 0 86.5-73.8 146.2-179.1 146.2zm95.9-143.8c0-56.1-40.7-101.4-91.1-101.4-50.4 0-91.1 45.3-91.1 101.4 0 56 40.7 101.3 91.1 101.3 50.4 0 91.1-45.3 91.1-101.3z"/>
</svg>