<svg xmlns="http://www.w3.org/2000/svg" width="120" version="1.1" id="Layer_1" viewBox="-55.67565 -38.2975 482.5223 229.785"><defs id="defs7413"><style id="style7411">.cls-1{fill:#ffffff}</style></defs><path id="path7417" d="M361.33 26.49s7.13-1.27 7.14-10.21c-.4-5.43-3.55-10.13-8.78-13C355.77 1.11 350.8 0 344.9 0h-.32c-15.15 0-27.51 9.64-27.51 21.93a15.53 15.53 0 002.19 8.15 20.64 20.64 0 006 7.58 14.28 14.28 0 00-6.29 5.46 16.88 16.88 0 00-1.91 7.86c0 11.9 13.06 18.13 26 18.13 16.81 0 28.11-10.41 28.11-25.92-.07-9.65-9.84-16.7-9.84-16.7z" class="cls-1"/><path id="path7419" d="M368.98 118.43a12.13 12.13 0 00-3.62-8.52 15.66 15.66 0 00-12.54-25h-17.55a15.66 15.66 0 00-15.84 15.78v35.47a15.66 15.66 0 0015.84 15.83h17.55a15.66 15.66 0 0012.54-25 12.14 12.14 0 003.62-8.56z" class="cls-1"/><path id="path7421" d="M97.04 68.45c-9.23 0-15.92-6.83-15.92-16.25V31a15 15 0 01-11.35-14.92c0-9 6.78-15.53 16.12-15.53h22.31c9.34 0 16.11 6.53 16.11 15.53A15 15 0 01112.96 31v21.2c0 9.42-6.7 16.25-15.92 16.25z" class="cls-1"/><path id="path7423" d="M261.59 68.65c-9.23 0-15.92-6.83-15.92-16.24v-35.8c0-9.41 6.7-16.25 15.92-16.25 9.22 0 15.92 6.83 15.92 16.25v35.8c0 9.41-6.7 16.24-15.92 16.24z" class="cls-1"/><path id="path7425" d="M15.92 152.29C6.69 152.29 0 145.46 0 136.05v-35.76a15.75 15.75 0 0115.92-15.92h12.91a27 27 0 0118 6.63 25.93 25.93 0 018.5 19.78c0 14.57-9.53 25-23.5 26.19-.41 8.95-6.98 15.32-15.91 15.32z" class="cls-1"/><path id="path7427" d="M96.33 152.29a15.75 15.75 0 01-16-15.89v-35.74c0-9.41 6.7-16.24 15.93-16.24s15.92 6.83 15.92 16.24v20.63h.62c9.23 0 15.92 6.53 15.92 15.53s-6.81 15.47-15.89 15.47z" class="cls-1"/><path id="path7429" d="M194.75 152.84a15.11 15.11 0 01-11.6-5 17.29 17.29 0 01-2.81-4.29h-2.01a17.29 17.29 0 01-2.81 4.29 15.12 15.12 0 01-11.6 5c-9 0-15.73-6.43-15.73-14.95 0-3.15.54-5.62 2.21-10.17l10.13-27.32a35.91 35.91 0 014.56-9.35 17.8 17.8 0 0128.48 0 35.48 35.48 0 014.63 9.43l10.1 27.28c1.69 4.57 2.22 7 2.22 10.19-.05 8.46-6.81 14.89-15.77 14.89z" class="cls-1"/><path id="path7431" d="M276.4 119.2v-2a15.49 15.49 0 0014.08-15.61c0-8.3-6.44-18-24.61-18-19.45 0-33.56 14.64-33.56 34.8 0 20.16 14 34.8 33.37 34.8 14.83 0 25.2-7.59 25.2-18.45a15.08 15.08 0 00-14.48-15.54z" class="cls-1"/><path id="path7433" d="M211.23 16.46a16 16 0 00-31-5.57h-1.8a16 16 0 00-31 5.57v36.13a16 16 0 0031.1 5.33h1.63a16 16 0 0031.11-5.33v-.23z" class="cls-1"/><script xmlns=""/></svg>