<svg xmlns="http://www.w3.org/2000/svg" viewBox="0 0 42.625931 32.650051">
  <g transform="translate(-87.312499,-132.29167)">
    <path class="t" d="m 96.573831,164.3428 c -2.50639,-0.55577 -3.883639,-1.52798 -4.727459,-3.33715 -0.357899,-0.76735 -0.454586,-2.26358 -0.564208,-8.73125 l -0.132292,-7.8052 h -1.918687 -1.918686 l 5.29e-4,-2.18282 3.86e-4,-2.18281 h 1.984375 1.984375 v -3.70417 -4.12315 l 2.424339,0.0418 c 0.713099,0.0123 2.44437,0.008 2.730948,0.0312 0,0 4.37e-4,2.49575 0.0017,4.31476 l 0.0024,3.30729 4.167189,0.0729 4.16719,0.0729 v 2.10323 2.10323 l -4.13561,0.0729 -4.135597,0.0729 0.05033,6.70497 c 0.02768,3.68774 0.157179,6.98602 0.287777,7.32952 0.425069,1.11809 1.524894,1.44363 4.87722,1.44363 h 3.05585 v 2.21211 2.2121 l -1.38906,0.16685 c -2.10783,0.25318 -5.187965,0.16476 -6.813022,-0.19558 z"/>
    <path class="d" d="m 114.5655,164.55024 c -5.23208,-1.39985 -8.45585,-6.12912 -8.45817,-12.40813 -0.003,-7.65269 4.58777,-12.31117 12.11976,-12.29899 2.28609,0.004 4.61813,0.36392 5.92955,0.91592 0.43111,0.18146 0.46302,-0.13538 0.46302,-4.59591 v -3.87146 h 2.65939 2.65938 l -0.088,12.37596 c -0.0795,12.01629 -0.13363,13.41481 -0.56258,14.53741 -0.96922,2.53652 -3.44776,4.55181 -6.65258,5.40917 -1.73395,0.46387 -6.23013,0.42823 -8.06979,-0.064 z m 6.35783,-4.62932 c 1.66511,-0.3571 3.05434,-1.50929 3.42385,-2.83964 0.14824,-0.53373 0.2702,-3.19108 0.27101,-5.90522 l 0.002,-4.9348 -0.88145,-0.52007 c -1.49848,-0.88412 -2.8751,-1.22576 -4.93939,-1.22582 -4.38425,-1.3e-4 -7.08874,2.67121 -7.35464,7.26451 -0.14897,2.57335 0.37518,4.25884 1.84297,5.92633 1.94556,2.21027 4.40037,2.92867 7.63618,2.23471 z"/>
  </g>
</svg>